<svg width="22" height="20" viewBox="0 0 22 20" fill="none" xmlns="http://www.w3.org/2000/svg">
<path d="M6.62056 16.6667H9.90514V15.5556H7.71542V14.4444H9.90514V11.1111H6.62056V12.2222H8.81028V13.3333H6.62056V16.6667ZM14.2846 16.6667H15.3794V11.1111H14.2846V13.3333H13.1897V11.1111H12.0949V14.4444H14.2846V16.6667ZM20.8537 8.94444V17.7778C20.8537 18.3889 20.6393 18.912 20.2105 19.3472C19.7817 19.7824 19.2662 20 18.664 20H3.33597C2.7338 20 2.2183 19.7824 1.78948 19.3472C1.36066 18.912 1.14625 18.3889 1.14625 17.7778V8.94444C0.726556 8.55556 0.402659 8.05556 0.174563 7.44444C-0.0535327 6.83333 -0.0580947 6.16667 0.160878 5.44444L1.31048 1.66667C1.45646 1.18519 1.71649 0.787037 2.09057 0.472222C2.46465 0.157407 2.89803 0 3.39072 0H18.6093C19.102 0 19.5308 0.152778 19.8957 0.458333C20.2607 0.763889 20.5253 1.16667 20.6895 1.66667L21.8391 5.44444C22.0581 6.16667 22.0535 6.82407 21.8254 7.41667C21.5973 8.00926 21.2734 8.51852 20.8537 8.94444ZM13.4087 7.77778C13.9014 7.77778 14.2755 7.60648 14.5309 7.26389C14.7864 6.9213 14.8868 6.53704 14.832 6.11111L14.2298 2.22222H12.0949V6.33333C12.0949 6.72222 12.2226 7.06019 12.4781 7.34722C12.7335 7.63426 13.0437 7.77778 13.4087 7.77778ZM8.48182 7.77778C8.90152 7.77778 9.24366 7.63426 9.50825 7.34722C9.77284 7.06019 9.90514 6.72222 9.90514 6.33333V2.22222H7.77016L7.16799 6.11111C7.095 6.55556 7.1908 6.94444 7.45539 7.27778C7.71998 7.61111 8.06212 7.77778 8.48182 7.77778ZM3.60969 7.77778C3.93815 7.77778 4.22555 7.65741 4.47189 7.41667C4.71824 7.17593 4.86878 6.87037 4.92352 6.5L5.5257 2.22222H3.39072L2.29586 5.94444C2.18637 6.31482 2.24567 6.71296 2.47377 7.13889C2.70187 7.56482 3.08051 7.77778 3.60969 7.77778ZM18.3903 7.77778C18.9195 7.77778 19.3027 7.56482 19.5399 7.13889C19.7771 6.71296 19.8319 6.31482 19.7041 5.94444L18.5545 2.22222H16.4743L17.0765 6.5C17.1312 6.87037 17.2818 7.17593 17.5281 7.41667C17.7745 7.65741 18.0619 7.77778 18.3903 7.77778ZM3.33597 17.7778H18.664V9.94444C18.5728 9.98148 18.5135 10 18.4861 10H18.3903C17.8976 10 17.4642 9.91667 17.0902 9.75C16.7161 9.58333 16.3466 9.31481 15.9816 8.94444C15.6532 9.27778 15.2791 9.53704 14.8594 9.72222C14.4397 9.90741 13.9926 10 13.5182 10C13.0255 10 12.5647 9.90741 12.1359 9.72222C11.7071 9.53704 11.3285 9.27778 11 8.94444C10.6898 9.27778 10.3294 9.53704 9.91883 9.72222C9.50825 9.90741 9.06575 10 8.59131 10C8.06212 10 7.58312 9.90741 7.1543 9.72222C6.72548 9.53704 6.34684 9.27778 6.01838 8.94444C5.63518 9.33333 5.25654 9.60648 4.88246 9.76389C4.50839 9.9213 4.08413 10 3.60969 10H3.48652C3.4409 10 3.39072 9.98148 3.33597 9.94444V17.7778Z" fill="currentColor"/>
</svg>
