<svg width="28" height="28" viewBox="0 0 28 28" fill="none" xmlns="http://www.w3.org/2000/svg">
<path d="M5.57143 16.7143H16.7143V13.9286H5.57143V16.7143ZM5.57143 12.5357H22.2857V9.75H5.57143V12.5357ZM5.57143 8.35714H22.2857V5.57143H5.57143V8.35714ZM0 27.8571V2.78571C0 2.01964 0.272768 1.36384 0.818304 0.818304C1.36384 0.272768 2.01964 0 2.78571 0H25.0714C25.8375 0 26.4933 0.272768 27.0388 0.818304C27.5844 1.36384 27.8571 2.01964 27.8571 2.78571V19.5C27.8571 20.2661 27.5844 20.9219 27.0388 21.4674C26.4933 22.0129 25.8375 22.2857 25.0714 22.2857H5.57143L0 27.8571ZM4.3875 19.5H25.0714V2.78571H2.78571V21.067L4.3875 19.5Z" fill="currentColor"/>
</svg>
