<svg width="79" height="73" viewBox="0 0 79 73" fill="none" xmlns="http://www.w3.org/2000/svg">
<path d="M33.8571 73C29.1548 73 24.7502 72.1483 20.6435 70.445C16.5367 68.7417 12.9472 66.3996 9.875 63.4188C6.80278 60.4379 4.38889 56.9552 2.63333 52.9706C0.877778 48.986 0 44.7125 0 40.15C0 35.5875 0.877778 31.314 2.63333 27.3294C4.38889 23.3448 6.80278 19.8621 9.875 16.8813C12.9472 13.9004 16.5367 11.5583 20.6435 9.855C24.7502 8.15167 29.1548 7.3 33.8571 7.3C35.1738 7.3 36.4435 7.37604 37.6661 7.52813C38.8887 7.68021 40.127 7.90833 41.381 8.2125V15.695C40.127 15.33 38.8887 15.0563 37.6661 14.8738C36.4435 14.6913 35.1738 14.6 33.8571 14.6C26.4587 14.6 20.2202 17.0638 15.1417 21.9913C10.0631 26.9188 7.52381 32.9717 7.52381 40.15C7.52381 47.3283 10.0631 53.3813 15.1417 58.3088C20.2202 63.2363 26.4587 65.7 33.8571 65.7C41.2556 65.7 47.494 63.2363 52.5726 58.3088C57.6512 53.3813 60.1905 47.3283 60.1905 40.15C60.1905 39.4808 60.1591 38.8725 60.0964 38.325C60.0337 37.7775 59.9397 37.1692 59.8143 36.5H67.5262C67.6516 37.1692 67.7143 37.7775 67.7143 38.325V40.15C67.7143 44.7125 66.8365 48.986 65.081 52.9706C63.3254 56.9552 60.9115 60.4379 57.8393 63.4188C54.7671 66.3996 51.1776 68.7417 47.0708 70.445C42.9641 72.1483 38.5595 73 33.8571 73ZM44.3905 55.48L30.0952 41.61V21.9H37.619V38.69L49.6571 50.37L44.3905 55.48ZM60.1905 29.2V18.25H48.9048V10.95H60.1905V0H67.7143V10.95H79V18.25H67.7143V29.2H60.1905Z" fill="currentColor"/>
</svg>
