<svg width="33" height="33" viewBox="0 0 33 33" fill="none" xmlns="http://www.w3.org/2000/svg">
<g filter="url(#filter0_d_684_19814)">
<path d="M20.625 18.375L22.375 16.625L17.75 12V6.25H15.25V13L20.625 18.375ZM16.5 25C14.7708 25 13.1458 24.6719 11.625 24.0156C10.1042 23.3594 8.78125 22.4688 7.65625 21.3438C6.53125 20.2188 5.64062 18.8958 4.98438 17.375C4.32812 15.8542 4 14.2292 4 12.5C4 10.7708 4.32812 9.14583 4.98438 7.625C5.64062 6.10417 6.53125 4.78125 7.65625 3.65625C8.78125 2.53125 10.1042 1.64062 11.625 0.984375C13.1458 0.328125 14.7708 0 16.5 0C18.2292 0 19.8542 0.328125 21.375 0.984375C22.8958 1.64062 24.2188 2.53125 25.3438 3.65625C26.4688 4.78125 27.3594 6.10417 28.0156 7.625C28.6719 9.14583 29 10.7708 29 12.5C29 14.2292 28.6719 15.8542 28.0156 17.375C27.3594 18.8958 26.4688 20.2188 25.3438 21.3438C24.2188 22.4688 22.8958 23.3594 21.375 24.0156C19.8542 24.6719 18.2292 25 16.5 25ZM16.5 22.5C19.2708 22.5 21.6302 21.526 23.5781 19.5781C25.526 17.6302 26.5 15.2708 26.5 12.5C26.5 9.72917 25.526 7.36979 23.5781 5.42188C21.6302 3.47396 19.2708 2.5 16.5 2.5C13.7292 2.5 11.3698 3.47396 9.42188 5.42188C7.47396 7.36979 6.5 9.72917 6.5 12.5C6.5 15.2708 7.47396 17.6302 9.42188 19.5781C11.3698 21.526 13.7292 22.5 16.5 22.5Z" fill="currentColor"/>
</g>
<defs>
<filter id="filter0_d_684_19814" x="0" y="0" width="33" height="33" filterUnits="userSpaceOnUse" color-interpolation-filters="sRGB">
<feFlood flood-opacity="0" result="BackgroundImageFix"/>
<feColorMatrix in="SourceAlpha" type="matrix" values="0 0 0 0 0 0 0 0 0 0 0 0 0 0 0 0 0 0 127 0" result="hardAlpha"/>
<feOffset dy="4"/>
<feGaussianBlur stdDeviation="2"/>
<feComposite in2="hardAlpha" operator="out"/>
<feColorMatrix type="matrix" values="0 0 0 0 0.266667 0 0 0 0 0.933333 0 0 0 0 0.356863 0 0 0 0.07 0"/>
<feBlend mode="normal" in2="BackgroundImageFix" result="effect1_dropShadow_684_19814"/>
<feBlend mode="normal" in="SourceGraphic" in2="effect1_dropShadow_684_19814" result="shape"/>
</filter>
</defs>
</svg>
