<svg width="31" height="31" viewBox="0 0 31 31" fill="none" xmlns="http://www.w3.org/2000/svg">
<path d="M15.5 5.05768C10.2778 5.05768 6.04443 9.2911 6.04443 14.5132C6.04443 19.7353 10.2778 23.9688 15.5 23.9688C20.7221 23.9688 24.9556 19.7353 24.9556 14.5132C24.9556 9.2911 20.7221 5.05768 15.5 5.05768Z" stroke="currentColor" stroke-width="2.59767" stroke-miterlimit="10" stroke-linecap="round" stroke-linejoin="round"/>
<path d="M1.19583 6.2725V22.7591C1.19583 26.1066 3.90951 28.8203 7.25707 28.8203H23.7437C27.0912 28.8203 29.8049 26.1066 29.8049 22.7591V6.2725C29.8049 2.92494 27.0912 0.21126 23.7437 0.21126H7.25707C3.90951 0.21126 1.19583 2.92494 1.19583 6.2725Z" stroke="currentColor" stroke-width="2.59767" stroke-miterlimit="10" stroke-linecap="round" stroke-linejoin="round"/>
<path d="M20.7129 14.5195H10.2876" stroke="currentColor" stroke-width="2.59767" stroke-miterlimit="10" stroke-linecap="round" stroke-linejoin="round"/>
<path d="M18.2878 9.9688H12.7114" stroke="currentColor" stroke-width="2.59767" stroke-miterlimit="10" stroke-linecap="round" stroke-linejoin="round"/>
<path d="M18.2878 19.0625H12.7114" stroke="currentColor" stroke-width="2.59767" stroke-miterlimit="10" stroke-linecap="round" stroke-linejoin="round"/>
<path d="M25.0776 6.4834C25.8965 6.48323 26.56 5.81884 26.56 5C26.5599 4.18131 25.8963 3.51775 25.0776 3.51758C24.2588 3.51758 23.5944 4.1812 23.5943 5C23.5943 5.81894 24.2587 6.4834 25.0776 6.4834Z" fill="currentColor"/>
<path d="M25.0776 25.6318C25.8965 25.6317 26.56 24.9673 26.56 24.1484C26.5599 23.3297 25.8963 22.6662 25.0776 22.666C24.2588 22.666 23.5944 23.3296 23.5943 24.1484C23.5943 24.9674 24.2587 25.6318 25.0776 25.6318Z" fill="currentColor"/>
<path d="M5.80225 6.4834C6.62104 6.48323 7.28477 5.81884 7.28477 5C7.2846 4.18131 6.62093 3.51775 5.80225 3.51758C4.98344 3.51758 4.31905 4.1812 4.31888 5C4.31888 5.81894 4.98334 6.4834 5.80225 6.4834Z" fill="currentColor"/>
<path d="M5.86283 25.6318C6.68162 25.6317 7.34524 24.9673 7.34524 24.1484C7.34507 23.3297 6.68151 22.6662 5.86283 22.666C5.04399 22.666 4.3796 23.3296 4.37943 24.1484C4.37943 24.9674 5.04388 25.6318 5.86283 25.6318Z" fill="currentColor"/>
</svg>