<svg width="20" height="16" viewBox="0 0 20 16" fill="none" xmlns="http://www.w3.org/2000/svg">
<path d="M2 0.325195H18C18.4613 0.325195 18.849 0.489663 19.1797 0.820312C19.5103 1.15096 19.6748 1.53874 19.6748 2V14C19.6748 14.4613 19.5103 14.849 19.1797 15.1797C18.849 15.5103 18.4613 15.6748 18 15.6748H2C1.53874 15.6748 1.15096 15.5103 0.820312 15.1797C0.489663 14.849 0.325195 14.4613 0.325195 14V2C0.325195 1.53874 0.489663 1.15096 0.820312 0.820312C1.15096 0.489663 1.53874 0.325195 2 0.325195ZM17.8271 3.72363L10 8.61523L2.17285 3.72363L1.6748 3.41211V14.3252H18.3252V3.41211L17.8271 3.72363ZM1.82715 2.27637L9.82715 7.27637L10 7.38379L10.1729 7.27637L18.1729 2.27637L19.1348 1.6748H0.865234L1.82715 2.27637Z" fill="currentColor" stroke="currentColor" stroke-width="0.651163"/>
</svg>
