<svg width="31" height="34" viewBox="0 0 31 34" fill="none" xmlns="http://www.w3.org/2000/svg">
<path d="M30.6499 14.0407L28.1244 12.3435L28.6219 11.5334C28.7749 11.302 28.8897 11.0641 28.9663 10.8198C29.0428 10.5755 29.081 10.3119 29.081 10.0291C29.081 9.66905 29.0173 9.32189 28.8897 8.98759C28.7622 8.65329 28.5709 8.35756 28.3158 8.1004C27.7801 7.56038 27.3655 6.93677 27.0722 6.2296C26.7788 5.52242 26.6321 4.78309 26.6321 4.01163C26.6321 3.42017 26.715 2.85443 26.8809 2.3144C27.0467 1.77437 27.2826 1.26006 27.5887 0.771467L28.0862 0L30.6499 1.69723L30.1142 2.50727C29.9611 2.73871 29.8527 2.97658 29.7889 3.22087C29.7252 3.46517 29.6933 3.72876 29.6933 4.01163C29.6933 4.37165 29.757 4.71881 29.8846 5.05311C30.0121 5.38741 30.2035 5.68314 30.4586 5.9403C30.9943 6.48032 31.4088 7.10392 31.7021 7.8111C31.9955 8.51828 32.1422 9.2576 32.1422 10.0291C32.1422 10.6205 32.0593 11.1863 31.8935 11.7263C31.7276 12.2663 31.4917 12.7806 31.1856 13.2692L30.6499 14.0407ZM24.2215 14.0407L21.6961 12.3435L22.1935 11.5334C22.3466 11.302 22.4613 11.0641 22.5379 10.8198C22.6144 10.5755 22.6527 10.3119 22.6527 10.0291C22.6527 9.66905 22.5889 9.32189 22.4613 8.98759C22.3338 8.65329 22.1425 8.35756 21.8874 8.1004C21.3517 7.56038 20.9372 6.93677 20.6438 6.2296C20.3504 5.52242 20.2038 4.78309 20.2038 4.01163C20.2038 3.42017 20.2867 2.85443 20.4525 2.3144C20.6183 1.77437 20.8543 1.26006 21.1604 0.771467L21.6578 0L24.2215 1.69723L23.6858 2.50727C23.5327 2.73871 23.4243 2.97658 23.3606 3.22087C23.2968 3.46517 23.2649 3.72876 23.2649 4.01163C23.2649 4.37165 23.3287 4.71881 23.4562 5.05311C23.5838 5.38741 23.7751 5.68314 24.0302 5.9403C24.5659 6.48032 24.9804 7.10392 25.2738 7.8111C25.5671 8.51828 25.7138 9.2576 25.7138 10.0291C25.7138 10.6205 25.6309 11.1863 25.4651 11.7263C25.2993 12.2663 25.0633 12.7806 24.7572 13.2692L24.2215 14.0407ZM16.8365 30.0486C19.617 29.6886 21.9894 28.5186 23.9536 26.5385C25.9179 24.5584 27.0786 22.1668 27.4357 19.3638H21.4282L16.8365 25.1498V30.0486ZM17.8314 14.0407L15.2677 12.3435L15.8034 11.5334C15.9564 11.302 16.0712 11.0641 16.1478 10.8198C16.2243 10.5755 16.2626 10.3119 16.2626 10.0291C16.2626 9.66905 16.1924 9.32189 16.0521 8.98759C15.9118 8.65329 15.7141 8.35756 15.459 8.1004C14.9233 7.56038 14.5088 6.93677 14.2154 6.2296C13.9221 5.52242 13.7754 4.78309 13.7754 4.01163C13.7754 3.42017 13.8519 2.85443 14.005 2.3144C14.158 1.77437 14.4004 1.26006 14.732 0.771467L15.2677 0L17.8314 1.69723L17.2957 2.50727C17.1426 2.71299 17.0278 2.94443 16.9513 3.20159C16.8748 3.45874 16.8365 3.72876 16.8365 4.01163C16.8365 4.37165 16.9003 4.71881 17.0278 5.05311C17.1554 5.38741 17.3467 5.68314 17.6018 5.9403C18.1375 6.48032 18.552 7.10392 18.8454 7.8111C19.1387 8.51828 19.2854 9.2576 19.2854 10.0291C19.2854 10.6205 19.2025 11.1863 19.0367 11.7263C18.8709 12.2663 18.6349 12.7806 18.3288 13.2692L17.8314 14.0407ZM3.17623 19.3638C3.53336 22.1668 4.69404 24.5584 6.65833 26.5385C8.62261 28.5186 10.995 29.6886 13.7754 30.0486V25.1498L9.18371 19.3638H3.17623ZM3.17623 16.278H30.5351C30.5606 16.5351 30.5797 16.7923 30.5925 17.0494C30.6052 17.3066 30.6116 17.5637 30.6116 17.8209C30.6116 19.9553 30.2098 21.9611 29.4063 23.8383C28.6027 25.7156 27.5122 27.3485 26.1347 28.7371C24.7572 30.1258 23.1373 31.2251 21.2752 32.0352C19.413 32.8452 17.4232 33.2502 15.306 33.2502C13.1887 33.2502 11.1989 32.8452 9.33671 32.0352C7.47456 31.2251 5.85467 30.1258 4.47721 28.7371C3.0997 27.3485 2.00917 25.7156 1.20562 23.8383C0.402075 21.9611 0.000305176 19.9553 0.000305176 17.8209C0.000305176 14.3493 1.00793 11.2698 3.02317 8.58257C5.03842 5.89529 7.60211 4.06306 10.7143 3.08587V6.40318C8.69902 7.22607 7.009 8.50542 5.64428 10.2412C4.27951 11.977 3.45683 13.9893 3.17623 16.278Z" fill="currentColor"/>
</svg>