<svg width="18" height="19" viewBox="0 0 18 19" fill="none" xmlns="http://www.w3.org/2000/svg">
<path d="M5.5 13C5.08333 13 4.72917 12.8542 4.4375 12.5625C4.14583 12.2708 4 11.9167 4 11.5C4 11.0833 4.14583 10.7292 4.4375 10.4375C4.72917 10.1458 5.08333 10 5.5 10C5.91667 10 6.27083 10.1458 6.5625 10.4375C6.85417 10.7292 7 11.0833 7 11.5C7 11.9167 6.85417 12.2708 6.5625 12.5625C6.27083 12.8542 5.91667 13 5.5 13ZM9 16C8.58333 16 8.22917 15.8542 7.9375 15.5625C7.64583 15.2708 7.5 14.9167 7.5 14.5C7.5 14.0833 7.64583 13.7292 7.9375 13.4375C8.22917 13.1458 8.58333 13 9 13C9.41667 13 9.77083 13.1458 10.0625 13.4375C10.3542 13.7292 10.5 14.0833 10.5 14.5C10.5 14.9167 10.3542 15.2708 10.0625 15.5625C9.77083 15.8542 9.41667 16 9 16ZM5.5 19C5.08333 19 4.72917 18.8542 4.4375 18.5625C4.14583 18.2708 4 17.9167 4 17.5C4 17.0833 4.14583 16.7292 4.4375 16.4375C4.72917 16.1458 5.08333 16 5.5 16C5.91667 16 6.27083 16.1458 6.5625 16.4375C6.85417 16.7292 7 17.0833 7 17.5C7 17.9167 6.85417 18.2708 6.5625 18.5625C6.27083 18.8542 5.91667 19 5.5 19ZM12.5 13C12.0833 13 11.7292 12.8542 11.4375 12.5625C11.1458 12.2708 11 11.9167 11 11.5C11 11.0833 11.1458 10.7292 11.4375 10.4375C11.7292 10.1458 12.0833 10 12.5 10C12.9167 10 13.2708 10.1458 13.5625 10.4375C13.8542 10.7292 14 11.0833 14 11.5C14 11.9167 13.8542 12.2708 13.5625 12.5625C13.2708 12.8542 12.9167 13 12.5 13ZM12.5 19C12.0833 19 11.7292 18.8542 11.4375 18.5625C11.1458 18.2708 11 17.9167 11 17.5C11 17.0833 11.1458 16.7292 11.4375 16.4375C11.7292 16.1458 12.0833 16 12.5 16C12.9167 16 13.2708 16.1458 13.5625 16.4375C13.8542 16.7292 14 17.0833 14 17.5C14 17.9167 13.8542 18.2708 13.5625 18.5625C13.2708 18.8542 12.9167 19 12.5 19ZM16 16C15.5833 16 15.2292 15.8542 14.9375 15.5625C14.6458 15.2708 14.5 14.9167 14.5 14.5C14.5 14.0833 14.6458 13.7292 14.9375 13.4375C15.2292 13.1458 15.5833 13 16 13C16.4167 13 16.7708 13.1458 17.0625 13.4375C17.3542 13.7292 17.5 14.0833 17.5 14.5C17.5 14.9167 17.3542 15.2708 17.0625 15.5625C16.7708 15.8542 16.4167 16 16 16ZM2 16C1.58333 16 1.22917 15.8542 0.9375 15.5625C0.645833 15.2708 0.5 14.9167 0.5 14.5C0.5 14.0833 0.645833 13.7292 0.9375 13.4375C1.22917 13.1458 1.58333 13 2 13C2.41667 13 2.77083 13.1458 3.0625 13.4375C3.35417 13.7292 3.5 14.0833 3.5 14.5C3.5 14.9167 3.35417 15.2708 3.0625 15.5625C2.77083 15.8542 2.41667 16 2 16ZM5.4 8C4.96667 8 4.575 7.87083 4.225 7.6125C3.875 7.35417 3.63333 7.01667 3.5 6.6L3 5H2C1.45 5 0.979167 4.80417 0.5875 4.4125C0.195833 4.02083 0 3.55 0 3V0H18V3C18 3.55 17.8042 4.02083 17.4125 4.4125C17.0208 4.80417 16.55 5 16 5H15L14.35 6.7C14.2 7.08333 13.9583 7.39583 13.625 7.6375C13.2917 7.87917 12.9167 8 12.5 8H5.4ZM2 2V3H16V2H2ZM5.1 5L5.4 6H12.6L12.9 5H5.1Z" fill="currentColor"/>
</svg>
