<svg width="22" height="28" viewBox="0 0 22 28" fill="none" xmlns="http://www.w3.org/2000/svg">
<path d="M5.5 28C3.9875 28 2.69271 27.4517 1.61563 26.355C0.538542 25.2583 0 23.94 0 22.4V8.4C0 6.86 0.538542 5.54167 1.61563 4.445C2.69271 3.34833 3.9875 2.8 5.5 2.8H6.875V0H9.625V2.8H12.375V0H15.125V2.8H16.5C18.0125 2.8 19.3073 3.34833 20.3844 4.445C21.4615 5.54167 22 6.86 22 8.4V22.4C22 23.94 21.4615 25.2583 20.3844 26.355C19.3073 27.4517 18.0125 28 16.5 28H5.5ZM5.5 25.2H16.5C17.2563 25.2 17.9036 24.9258 18.4422 24.3775C18.9807 23.8292 19.25 23.17 19.25 22.4V8.4C19.25 7.63 18.9807 6.97083 18.4422 6.4225C17.9036 5.87417 17.2563 5.6 16.5 5.6H5.5C4.74375 5.6 4.09635 5.87417 3.55781 6.4225C3.01927 6.97083 2.75 7.63 2.75 8.4V22.4C2.75 23.17 3.01927 23.8292 3.55781 24.3775C4.09635 24.9258 4.74375 25.2 5.5 25.2ZM5.5 11.2H16.5V8.4H5.5V11.2ZM11 22.4C11.9625 22.4 12.776 22.0675 13.4406 21.4025C14.1052 20.7375 14.4375 19.9267 14.4375 18.97C14.4375 18.2 14.2198 17.5408 13.7844 16.9925C13.349 16.4442 12.4208 15.33 11 13.65C9.55625 15.33 8.6224 16.45 8.19844 17.01C7.77448 17.57 7.5625 18.2233 7.5625 18.97C7.5625 19.9267 7.89479 20.7375 8.55937 21.4025C9.22396 22.0675 10.0375 22.4 11 22.4Z" fill="currentColor"
stroke="currentColor"/>
</svg>
