<svg width="42" height="15" viewBox="0 0 42 15" fill="none" xmlns="http://www.w3.org/2000/svg">
<path d="M10.5955 15C8.65454 15 7.175 14.7414 6.15682 14.2241C5.13864 13.7069 4.2 12.7429 3.34091 11.3323C2.86364 10.5486 2.45795 9.61599 2.12386 8.53448C1.78977 7.45298 1.47955 6.47335 1.19318 5.59561C0.843182 5.59561 0.556818 5.48589 0.334091 5.26646C0.111364 5.04702 0 4.76489 0 4.42006V2.11599C0 1.83386 0.0954545 1.59091 0.286364 1.38715C0.477273 1.18339 0.715909 1.05016 1.00227 0.987461C2.78409 0.642633 4.39886 0.39185 5.84659 0.23511C7.29432 0.0783699 8.68636 0 10.0227 0C11.9636 0 13.7216 0.15674 15.2966 0.470219C16.8716 0.783699 18.1045 1.23824 18.9955 1.83386H23.0523C23.8159 1.26959 25.025 0.822884 26.6795 0.49373C28.3341 0.164577 30.1159 0 32.025 0C33.3614 0 34.7455 0.0783699 36.1773 0.23511C37.6091 0.39185 39.2159 0.642633 40.9977 0.987461C41.2841 1.05016 41.5227 1.18339 41.7136 1.38715C41.9045 1.59091 42 1.83386 42 2.11599V4.42006C42 4.76489 41.8886 5.04702 41.6659 5.26646C41.4432 5.48589 41.1568 5.59561 40.8068 5.59561C40.5205 6.47335 40.2102 7.45298 39.8761 8.53448C39.542 9.61599 39.1364 10.5486 38.6591 11.3323C37.8318 12.7116 36.9011 13.6677 35.867 14.2006C34.833 14.7335 33.3455 15 31.4045 15C29.4 15 27.6977 14.5768 26.2977 13.7304C24.8977 12.884 23.9273 11.5204 23.3864 9.6395C23.2273 9.13793 23.092 8.63636 22.9807 8.1348C22.8693 7.63323 22.7341 7.13166 22.575 6.63009C22.4477 6.25392 22.2568 5.97962 22.0023 5.80721C21.7477 5.6348 21.4136 5.54859 21 5.54859C20.6182 5.54859 20.3 5.64263 20.0455 5.83072C19.7909 6.01881 19.5841 6.28527 19.425 6.63009C19.2659 7.13166 19.1307 7.63323 19.0193 8.1348C18.908 8.63636 18.7727 9.13793 18.6136 9.6395C18.0727 11.5204 17.1023 12.884 15.7023 13.7304C14.3023 14.5768 12.6 15 10.5955 15ZM10.5955 12.2727C12.8545 12.2727 14.3977 11.6144 15.225 10.2978C16.0523 8.98119 16.4659 7.2884 16.4659 5.21944C16.4659 4.68652 16.275 4.27116 15.8932 3.97335C15.5114 3.67555 14.7636 3.40125 13.65 3.15047C12.8227 2.93103 11.8205 2.79781 10.6432 2.75078C9.46591 2.70376 8.32045 2.75862 7.20682 2.91536C6.37955 3.04075 5.76705 3.24451 5.36932 3.52665C4.97159 3.80878 4.77273 4.2163 4.77273 4.74922C4.77273 5.59561 4.84432 6.41066 4.9875 7.19436C5.13068 7.97806 5.34545 8.69906 5.63182 9.35737C6.14091 10.4545 6.7375 11.2147 7.42159 11.6379C8.10568 12.0611 9.16364 12.2727 10.5955 12.2727ZM31.4045 12.2727C32.8364 12.2727 33.8943 12.0611 34.5784 11.6379C35.2625 11.2147 35.8432 10.4545 36.3205 9.35737C36.6068 8.69906 36.8295 7.97806 36.9886 7.19436C37.1477 6.41066 37.2273 5.57994 37.2273 4.70219C37.2273 4.16928 37.0284 3.75392 36.6307 3.45611C36.233 3.15831 35.6045 2.96238 34.7455 2.86834C33.6318 2.7116 32.4943 2.66458 31.333 2.72727C30.1716 2.78997 29.1773 2.93103 28.35 3.15047C27.2364 3.40125 26.4886 3.66771 26.1068 3.94984C25.725 4.23198 25.5341 4.6395 25.5341 5.17241C25.5341 7.24138 25.9477 8.94201 26.775 10.2743C27.6023 11.6066 29.1455 12.2727 31.4045 12.2727Z" fill="currentColor"
stroke="currentColor"/>
</svg>
