<svg width="16" height="16" viewBox="0 0 16 16" fill="none" xmlns="http://www.w3.org/2000/svg">
<path d="M13.7329 6.32392H13.2256V6.29778H7.55759V8.81692H11.1168C10.5976 10.2834 9.20227 11.336 7.55759 11.336C5.47081 11.336 3.7789 9.64413 3.7789 7.55735C3.7789 5.47056 5.47081 3.77865 7.55759 3.77865C8.52085 3.77865 9.39719 4.14204 10.0644 4.73561L11.8458 2.95427C10.721 1.90599 9.21644 1.25952 7.55759 1.25952C4.07962 1.25952 1.25977 4.07937 1.25977 7.55735C1.25977 11.0353 4.07962 13.8552 7.55759 13.8552C11.0356 13.8552 13.8554 11.0353 13.8554 7.55735C13.8554 7.13508 13.812 6.72289 13.7329 6.32392Z" fill="#FFC107"/>
<path d="M1.98584 4.62603L4.05499 6.14349C4.61487 4.75734 5.97079 3.77865 7.55753 3.77865C8.52078 3.77865 9.39712 4.14204 10.0644 4.73561L11.8457 2.95427C10.7209 1.90599 9.21638 1.25952 7.55753 1.25952C5.13853 1.25952 3.04073 2.62521 1.98584 4.62603Z" fill="#FF3D00"/>
<path d="M7.55732 13.8552C9.18405 13.8552 10.6622 13.2327 11.7797 12.2203L9.83053 10.5709C9.17709 11.0682 8.37843 11.337 7.55732 11.3361C5.91926 11.3361 4.52838 10.2916 4.00441 8.83398L1.95068 10.4163C2.99297 12.4559 5.10967 13.8552 7.55732 13.8552Z" fill="#4CAF50"/>
<path d="M13.733 6.32399H13.2257V6.29785H7.55762V8.81698H11.1168C10.8685 9.51491 10.421 10.1248 9.82987 10.5712L9.83082 10.5706L11.78 12.22C11.6421 12.3453 13.8554 10.7063 13.8554 7.55742C13.8554 7.13515 13.812 6.72296 13.733 6.32399Z" fill="#1976D2"/>
</svg>
