<svg width="27" height="33" viewBox="0 0 27 33" fill="none" xmlns="http://www.w3.org/2000/svg">
<path d="M8.745 14.4788C8.745 15.0013 8.83437 15.51 9.01312 16.005C9.19187 16.5 9.44625 16.9538 9.77625 17.3663C9.83125 17.0363 9.94125 16.7131 10.1062 16.3969C10.2712 16.0806 10.4775 15.8125 10.725 15.5925L13.2 13.2L15.6337 15.6338C15.8812 15.8538 16.0875 16.115 16.2525 16.4175C16.4175 16.72 16.5275 17.0363 16.5825 17.3663C16.885 16.9538 17.1531 16.5138 17.3869 16.0463C17.6206 15.5788 17.7375 15.0838 17.7375 14.5613C17.7375 14.0388 17.655 13.5369 17.49 13.0556C17.325 12.5744 17.0775 12.1275 16.7475 11.715C16.445 11.8525 16.1356 11.9625 15.8194 12.045C15.5031 12.1275 15.18 12.1688 14.85 12.1688C14.025 12.1688 13.2687 11.935 12.5812 11.4675C11.8937 11 11.3712 10.3813 11.0137 9.61125C10.6837 9.94125 10.3812 10.2919 10.1062 10.6631C9.83125 11.0344 9.59062 11.4263 9.38437 11.8388C9.17812 12.2513 9.02 12.6775 8.91 13.1175C8.8 13.5575 8.745 14.0113 8.745 14.4788ZM13.2 16.665L12.4987 17.3663C12.3887 17.4763 12.3131 17.5863 12.2719 17.6963C12.2306 17.8063 12.21 17.93 12.21 18.0675C12.21 18.3425 12.3062 18.5625 12.4987 18.7275C12.6912 18.8925 12.925 18.975 13.2 18.975C13.475 18.975 13.7087 18.8925 13.9012 18.7275C14.0937 18.5625 14.19 18.3425 14.19 18.0675C14.19 17.93 14.1694 17.8063 14.1281 17.6963C14.0869 17.5863 14.0112 17.4763 13.9012 17.3663L13.2 16.665ZM13.2 4.95V8.085C13.2 8.5525 13.365 8.94438 13.695 9.26063C14.025 9.57688 14.4237 9.735 14.8912 9.735C15.1937 9.735 15.4687 9.64563 15.7162 9.46688C15.9637 9.28813 16.1837 9.075 16.3762 8.8275L16.665 8.415C17.7925 9.0475 18.6656 9.90688 19.2844 10.9931C19.9031 12.0794 20.2125 13.2688 20.2125 14.5613C20.2125 16.4862 19.525 18.1156 18.15 19.4494C16.775 20.7831 15.125 21.45 13.2 21.45C11.275 21.45 9.63875 20.7763 8.29125 19.4288C6.94375 18.0813 6.27 16.445 6.27 14.52C6.27 12.4025 6.94375 10.5188 8.29125 8.86875C9.63875 7.21875 11.275 5.9125 13.2 4.95ZM3.3 33C2.3925 33 1.61562 32.6769 0.969375 32.0306C0.323125 31.3844 0 30.6075 0 29.7V6.6C0 4.785 0.64625 3.23125 1.93875 1.93875C3.23125 0.64625 4.785 0 6.6 0H19.8C21.615 0 23.1687 0.64625 24.4612 1.93875C25.7537 3.23125 26.4 4.785 26.4 6.6V29.7C26.4 30.6075 26.0769 31.3844 25.4306 32.0306C24.7844 32.6769 24.0075 33 23.1 33H3.3ZM3.3 26.4V29.7H23.1V26.4C22.275 26.4 21.615 26.675 21.12 27.225C20.625 27.775 19.635 28.05 18.15 28.05C16.665 28.05 15.6956 27.775 15.2419 27.225C14.7881 26.675 14.1075 26.4 13.2 26.4C12.2925 26.4 11.6119 26.675 11.1581 27.225C10.7044 27.775 9.735 28.05 8.25 28.05C6.765 28.05 5.79562 27.775 5.34187 27.225C4.88812 26.675 4.2075 26.4 3.3 26.4ZM8.25 24.75C9.1575 24.75 9.83812 24.475 10.2919 23.925C10.7456 23.375 11.715 23.1 13.2 23.1C14.685 23.1 15.675 23.375 16.17 23.925C16.665 24.475 17.325 24.75 18.15 24.75C18.975 24.75 19.635 24.475 20.13 23.925C20.625 23.375 21.615 23.1 23.1 23.1V6.6C23.1 5.6925 22.7769 4.91563 22.1306 4.26938C21.4844 3.62313 20.7075 3.3 19.8 3.3H6.6C5.6925 3.3 4.91562 3.62313 4.26937 4.26938C3.62312 4.91563 3.3 5.6925 3.3 6.6V23.1C4.785 23.1 5.75437 23.375 6.20812 23.925C6.66187 24.475 7.3425 24.75 8.25 24.75Z" fill="currentColor"
stroke="currentColor"/>
</svg>
