<svg width="29" height="23" viewBox="0 0 29 23" fill="none" xmlns="http://www.w3.org/2000/svg">
<path d="M2.9 23V11.5H0V8.625H5.8C5.0025 8.625 4.31979 8.34349 3.75187 7.78047C3.18396 7.21745 2.9 6.54063 2.9 5.75V0H11.6V5.75C11.6 6.54063 11.316 7.21745 10.7481 7.78047C10.1802 8.34349 9.4975 8.625 8.7 8.625H20.3V4.3125C20.3 3.90521 20.161 3.5638 19.8831 3.28828C19.6052 3.01276 19.2608 2.875 18.85 2.875C18.4392 2.875 18.0948 3.01276 17.8169 3.28828C17.539 3.5638 17.4 3.90521 17.4 4.3125H14.5C14.5 3.11458 14.9229 2.09635 15.7687 1.25781C16.6146 0.419271 17.6417 0 18.85 0C20.0583 0 21.0854 0.419271 21.9312 1.25781C22.7771 2.09635 23.2 3.11458 23.2 4.3125V8.625H29V11.5H26.1V23H2.9ZM5.8 5.75H8.7V2.875H5.8V5.75ZM5.8 20.125H13.05V11.5H5.8V20.125ZM15.95 20.125H23.2V11.5H15.95V20.125Z" fill="currentColor"
stroke="currentColor"/>
</svg>
