<svg width="28" height="21" viewBox="0 0 28 21" fill="none" xmlns="http://www.w3.org/2000/svg">
<path d="M7.6132 18.5294H20.3549V7.81324L13.9841 3.08824L7.6132 7.81324V18.5294ZM5.06485 21V9.69706L1.49716 12.3529L0 10.4074L13.9841 0L28 10.3765L26.471 12.3529L22.9033 9.69706V21H5.06485ZM13.9841 16.0588C14.6849 16.0588 15.2848 15.8169 15.7838 15.3331C16.2829 14.8493 16.5324 14.2676 16.5324 13.5882C16.5324 13.0324 16.3732 12.4404 16.0546 11.8125C15.7361 11.1846 15.0459 10.1294 13.9841 8.64706C12.9223 10.1294 12.2321 11.1846 11.9135 11.8125C11.595 12.4404 11.4357 13.0324 11.4357 13.5882C11.4357 14.2676 11.6852 14.8493 12.1843 15.3331C12.6834 15.8169 13.2833 16.0588 13.9841 16.0588Z" fill="currentColor"
stroke="currentColor"/>
</svg>
