<svg width="34" height="45" viewBox="0 0 34 45" fill="none" xmlns="http://www.w3.org/2000/svg">

<path d="M17 45C15.7533 45 14.6861 44.5594 13.7983 43.6781C12.9106 42.7969 12.4667 41.7375 12.4667 40.5H21.5333C21.5333 41.7375 21.0894 42.7969 20.2017 43.6781C19.3139 44.5594 18.2467 45 17 45ZM7.93333 38.25V33.75H26.0667V38.25H7.93333ZM8.5 31.5C5.89333 29.9625 3.825 27.9 2.295 25.3125C0.765 22.725 0 19.9125 0 16.875C0 12.1875 1.65278 8.20312 4.95833 4.92188C8.26389 1.64062 12.2778 0 17 0C21.7222 0 25.7361 1.64062 29.0417 4.92188C32.3472 8.20312 34 12.1875 34 16.875C34 19.9125 33.235 22.725 31.705 25.3125C30.175 27.9 28.1067 29.9625 25.5 31.5H8.5ZM9.86 27H24.14C25.84 25.8 27.1528 24.3187 28.0783 22.5562C29.0039 20.7937 29.4667 18.9 29.4667 16.875C29.4667 13.425 28.2578 10.5 25.84 8.1C23.4222 5.7 20.4756 4.5 17 4.5C13.5244 4.5 10.5778 5.7 8.16 8.1C5.74222 10.5 4.53333 13.425 4.53333 16.875C4.53333 18.9 4.99611 20.7937 5.92167 22.5562C6.84722 24.3187 8.16 25.8 9.86 27Z" fill="url(#paint0_linear)"/>

<defs>
  <linearGradient id="paint0_linear" x1="17" y1="0" x2="17" y2="45" gradientUnits="userSpaceOnUse">
    <stop stop-color="#73F284"/>
    <stop offset="1" stop-color="#085E14"/>
  </linearGradient>
</defs>

</svg>
