<svg width="65" height="44" viewBox="0 0 65 44" fill="none" xmlns="http://www.w3.org/2000/svg">
<rect x="0.5" y="0.5" width="64" height="43" rx="5.5" fill="white" stroke="#D9D9D9"/>
<path fill-rule="evenodd" clip-rule="evenodd" d="M19.7324 29.8068H15.7947L12.8418 18.686C12.7017 18.1744 12.4041 17.7222 11.9664 17.509C10.8739 16.9734 9.67015 16.5471 8.35693 16.3321V15.904H14.7003C15.5758 15.904 16.2324 16.5471 16.3418 17.294L17.8739 25.3158L21.8098 15.904H25.6381L19.7324 29.8068ZM27.8268 29.8068H24.1079L27.1702 15.904H30.889L27.8268 29.8068ZM35.7003 19.7555C35.8098 19.0067 36.4664 18.5785 37.2324 18.5785C38.4362 18.471 39.7475 18.686 40.8418 19.2198L41.4985 16.2265C40.4041 15.7983 39.2003 15.5833 38.1079 15.5833C34.4985 15.5833 31.872 17.5091 31.872 20.1818C31.872 22.215 33.7324 23.2826 35.0456 23.9257C36.4664 24.567 37.0135 24.9952 36.9041 25.6365C36.9041 26.5984 35.8098 27.0266 34.7173 27.0266C33.4041 27.0266 32.0909 26.7059 30.889 26.1703L30.2324 29.1655C31.5456 29.6993 32.9664 29.9143 34.2796 29.9143C38.3268 30.0199 40.8418 28.096 40.8418 25.2083C40.8418 21.5718 35.7003 21.3587 35.7003 19.7555V19.7555ZM53.8569 29.8068L50.9041 15.904H47.7324C47.0758 15.904 46.4192 16.3321 46.2003 16.9734L40.7324 29.8068H44.5607L45.3248 27.7754H50.0286L50.4664 29.8068H53.8569ZM48.2796 19.648L49.372 24.8877H46.3098L48.2796 19.648Z" fill="#172B85"/>
</svg>
