<svg width="65" height="44" viewBox="0 0 65 44" fill="none" xmlns="http://www.w3.org/2000/svg">
<rect x="0.5" y="0.5" width="64" height="43" rx="5.5" fill="white" stroke="#D9D9D9"/>
<path d="M41.1846 9.16663C48.1833 9.16678 53.8573 14.8327 53.8574 21.8219C53.8574 28.8112 48.1834 34.477 41.1846 34.4772C38.0467 34.4772 35.1771 33.3362 32.9639 31.4498C30.7507 33.336 27.8818 34.4771 24.7441 34.4772C17.7452 34.4772 12.0713 28.8113 12.0713 21.8219C12.0714 14.8326 17.7453 9.16663 24.7441 9.16663C27.8817 9.16666 30.7507 10.3079 32.9639 12.194C35.1771 10.3077 38.0468 9.16663 41.1846 9.16663Z" fill="#ED0006"/>
<path d="M41.1841 9.16663C48.183 9.16663 53.8568 14.8326 53.8569 21.8219C53.8569 28.8113 48.183 34.4772 41.1841 34.4772C38.0465 34.4771 35.1775 33.3361 32.9644 31.4498C35.6879 29.1286 37.4165 25.6778 37.4165 21.8219C37.4164 17.9659 35.6879 14.5152 32.9644 12.194C35.1775 10.3078 38.0466 9.16672 41.1841 9.16663Z" fill="#F9A000"/>
<path d="M32.9639 12.1938C35.6876 14.515 37.4169 17.9658 37.417 21.8218C37.417 25.6775 35.6872 29.1275 32.9639 31.4487C30.2408 29.1275 28.5117 25.6773 28.5117 21.8218C28.5118 17.966 30.2404 14.515 32.9639 12.1938Z" fill="#FF5E00"/>
</svg>
