<svg width="65" height="44" viewBox="0 0 65 44" fill="none" xmlns="http://www.w3.org/2000/svg">
<rect width="65" height="44" rx="6" fill="#0FA623"/>
<path d="M44.7412 29.8405V13H48.149V19.4888H48.219C48.8609 17.9366 50.1796 17.073 52.0586 17.073C54.7661 17.073 56.4467 18.9636 56.4467 21.9863V29.8405H53.0389V22.6865C53.0389 20.9359 52.1753 19.8972 50.6231 19.8972C49.1176 19.8972 48.149 21.0409 48.149 22.6748V29.8405H44.7412Z" fill="white"/>
<path d="M38.4615 30.097C34.9954 30.097 33.0698 28.4981 32.8013 26.129L32.7897 26.024H36.1158L36.1391 26.129C36.3608 27.1093 37.0961 27.6812 38.4615 27.6812C39.7453 27.6812 40.5272 27.1794 40.5272 26.3741V26.3624C40.5272 25.6972 40.1071 25.3121 38.8817 25.0437L36.7576 24.6002C34.3302 24.0867 33.1048 22.873 33.1048 21.0057V20.994C33.1048 18.6133 35.1588 17.0728 38.3448 17.0728C41.6709 17.0728 43.5265 18.835 43.6082 21.029V21.1457H40.4688L40.4572 21.0524C40.3405 20.1538 39.6052 19.4769 38.3448 19.4769C37.1661 19.4769 36.4309 20.002 36.4309 20.8073V20.819C36.4309 21.4608 36.8627 21.881 38.1231 22.1494L40.2471 22.6046C42.8613 23.1531 43.935 24.1801 43.935 26.024V26.0357C43.935 28.4865 41.6826 30.097 38.4615 30.097Z" fill="white"/>
<path d="M24.8995 30.0386C22.3903 30.0386 20.6981 28.4631 20.6981 26.2574V26.2341C20.6981 23.9583 22.4604 22.6279 25.5647 22.4295L28.6574 22.2428V21.4725C28.6574 20.3638 27.9338 19.6753 26.6034 19.6753C25.3313 19.6753 24.561 20.2705 24.3977 21.0757L24.3743 21.1808H21.2583L21.27 21.0407C21.4567 18.73 23.4407 17.0728 26.7434 17.0728C29.9761 17.0728 32.0651 18.7416 32.0651 21.2624V29.8402H28.6574V27.973H28.5873C27.8755 29.2567 26.545 30.0386 24.8995 30.0386ZM24.0709 26.0823C24.0709 27.0043 24.8295 27.5528 26.0082 27.5528C27.537 27.5528 28.6574 26.5725 28.6574 25.2654V24.3668L26.0782 24.5302C24.7594 24.6119 24.0709 25.1721 24.0709 26.059V26.0823Z" fill="white"/>
<path d="M14.827 30.097C11.0108 30.097 8.65332 27.6112 8.65332 23.5732V23.5615C8.65332 19.5586 11.0458 17.0728 14.792 17.0728C18.1881 17.0728 20.3471 19.1618 20.4755 21.8693V21.951H17.3128L17.2895 21.846C17.0794 20.6556 16.2508 19.7453 14.8387 19.7453C13.1698 19.7453 12.1194 21.1808 12.1194 23.5732V23.5849C12.1194 26.0357 13.1698 27.4244 14.8503 27.4244C16.2158 27.4244 17.0677 26.5842 17.3011 25.3238L17.3128 25.2187H20.4872V25.2888C20.3238 28.0196 18.1647 30.097 14.827 30.097Z" fill="white"/>
</svg>
