<svg width="65" height="44" viewBox="0 0 65 44" fill="none" xmlns="http://www.w3.org/2000/svg">
<rect x="0.5" y="0.5" width="64" height="43" rx="5.5" fill="white" stroke="#D9D9D9"/>
<path d="M27.3633 43.0833L64.0419 32.5416V38.0833C64.0419 40.8447 61.8033 43.0833 59.0419 43.0833H27.3633Z" fill="#FD6020"/>
<path d="M27.7202 17.6194C28.4264 17.6194 29.2331 17.7187 29.8384 18.1125V20.0823C29.334 19.4914 28.5272 19.097 27.7202 19.0969C26.106 19.1954 24.7942 20.5747 24.895 22.1506V22.3479C24.8951 23.9238 26.2065 25.1057 27.8208 25.1057C28.6279 25.1057 29.3339 24.7113 29.8384 24.1204V26.0911C29.1322 26.3865 28.4257 26.5833 27.6187 26.5833C25.0964 26.5831 23.0786 24.5144 23.0786 22.052C23.0788 19.4912 25.0971 17.4224 27.7202 17.6194ZM43.5601 23.5295L45.9819 17.6194H47.7974L44.0649 26.5833H43.1567L39.4233 17.6194H41.2397L43.5601 23.5295ZM19.6479 17.4231C20.5559 17.4231 21.4642 17.8166 22.1704 18.4075L21.2622 19.5901C20.8586 19.1961 20.3545 18.9006 19.8501 18.9006C19.2448 18.8021 18.7402 19.2941 18.6392 19.885C18.6392 20.3775 18.9419 20.575 19.9507 20.969C21.9685 21.7569 22.4738 22.3477 22.5747 23.5295V23.8254C22.4737 25.4014 21.1616 26.5831 19.5474 26.4846C18.3366 26.4846 17.1264 25.8933 16.521 24.8098L17.6304 23.7268C17.9331 24.4163 18.6396 24.9084 19.4468 24.9084H19.5474C20.1527 24.9084 20.7583 24.3177 20.7583 23.6282C20.7583 23.2342 20.5561 22.9384 20.2534 22.7415C19.8499 22.5445 19.446 22.3477 19.0425 22.2493C17.4285 21.7568 16.9243 21.0669 16.9243 19.885V19.7864C17.0254 18.4077 18.2357 17.3248 19.6479 17.4231ZM9.15479 17.6194C11.5761 17.7179 13.4937 19.6882 13.3931 22.052C13.393 23.3322 12.7874 24.5142 11.7788 25.4006C10.8708 26.0901 9.76068 26.4844 8.65088 26.386H6.12842V17.6194H9.15479ZM15.814 26.386H14.0991V17.6194H15.814V26.386ZM53.4478 19.0969H50.3198V21.0676H53.3472V22.5452H50.3198V24.9084H53.4478V26.386H48.605V17.6194H53.4478V19.0969ZM57.0806 17.6194C59.0978 17.6195 60.2081 18.5061 60.2085 20.1799C60.3094 21.4603 59.4005 22.5443 58.1899 22.7415L60.9146 26.386H58.7954L56.4751 22.8401H56.2729V26.386H54.5581V17.6194H57.0806ZM10.6685 19.7864C10.0631 19.2941 9.15512 18.9985 8.34814 19.0969H7.84326V24.9084H8.34814C9.1552 25.0069 10.0631 24.7114 10.6685 24.219C11.2737 23.628 11.5767 22.8397 11.5767 21.9534C11.5765 21.1655 11.2737 20.3773 10.6685 19.7864ZM56.2729 21.6575H56.7778C57.8874 21.6574 58.3921 21.165 58.3921 20.2786C58.3918 19.4911 57.8871 18.9984 56.7778 18.9983H56.2729V21.6575Z" fill="black"/>
<path fill-rule="evenodd" clip-rule="evenodd" d="M34.9844 17.4166C32.462 17.4166 30.3433 19.3866 30.3433 21.9476C30.3433 24.4101 32.3612 26.4786 34.9844 26.5771C37.6077 26.6756 39.6256 24.6071 39.7265 22.0461C39.6256 19.4851 37.6077 17.4166 34.9844 17.4166V17.4166Z" fill="#FD6020"/>
</svg>
