<svg width="21" height="21" viewBox="0 0 21 21" fill="none" xmlns="http://www.w3.org/2000/svg">
<path d="M14.562 8.96121V5.60076H11.2015V3.36045H14.562V0H16.8023V3.36045H20.1627V5.60076H16.8023V8.96121H14.562ZM18.9866 20.1627C16.6529 20.1627 14.3473 19.654 12.0696 18.6365C9.79199 17.619 7.71971 16.1768 5.85279 14.3099C3.98587 12.443 2.54368 10.3707 1.52621 8.09309C0.508735 5.81545 0 3.50981 0 1.17616C0 0.840113 0.112015 0.560076 0.336045 0.336045C0.560076 0.112015 0.840113 0 1.17616 0H5.71277C5.97414 0 6.2075 0.0886786 6.41287 0.266036C6.61823 0.443393 6.73958 0.653422 6.77691 0.896121L7.50501 4.81665C7.54235 5.11536 7.53302 5.36739 7.47701 5.57275C7.421 5.77811 7.31832 5.95547 7.16897 6.10482L4.4526 8.84919C4.82598 9.53995 5.26938 10.2074 5.78278 10.8515C6.29618 11.4956 6.86093 12.1163 7.47701 12.7137C8.05575 13.2925 8.6625 13.8292 9.29725 14.3239C9.93201 14.8187 10.6041 15.2714 11.3135 15.6821L13.9459 13.0498C14.1139 12.8817 14.3333 12.7557 14.604 12.6717C14.8747 12.5877 15.1407 12.5644 15.4021 12.6017L19.2666 13.3858C19.528 13.4605 19.7427 13.5958 19.9107 13.7919C20.0787 13.9879 20.1627 14.2073 20.1627 14.45V18.9866C20.1627 19.3226 20.0507 19.6026 19.8267 19.8267C19.6026 20.0507 19.3226 20.1627 18.9866 20.1627ZM3.38846 6.72091L5.23671 4.87266L4.76064 2.2403H2.26831C2.36165 3.00574 2.49234 3.76184 2.66036 4.50861C2.82838 5.25538 3.07108 5.99281 3.38846 6.72091ZM13.4138 16.7463C14.1419 17.0636 14.884 17.3157 15.6401 17.5024C16.3962 17.6891 17.157 17.8104 17.9224 17.8664V15.4021L15.2901 14.87L13.4138 16.7463Z" fill="currentColor"/>
</svg>
