<svg width="34" height="34" viewBox="0 0 34 34" fill="none" xmlns="http://www.w3.org/2000/svg">
<g filter="url(#filter0_d_328_3764)">
<path d="M28.4833 26C25.4741 26 22.5009 25.344 19.5639 24.0319C16.6269 22.7199 13.9546 20.8602 11.5472 18.4528C9.13982 16.0454 7.28009 13.3731 5.96806 10.4361C4.65602 7.49907 4 4.52593 4 1.51667C4 1.08333 4.14444 0.722222 4.43333 0.433333C4.72222 0.144444 5.08333 0 5.51667 0H11.3667C11.7037 0 12.0046 0.114352 12.2694 0.343056C12.5343 0.571759 12.6907 0.842593 12.7389 1.15556L13.6778 6.21111C13.7259 6.5963 13.7139 6.9213 13.6417 7.18611C13.5694 7.45093 13.437 7.67963 13.2444 7.87222L9.74167 11.4111C10.2231 12.3019 10.7949 13.1625 11.4569 13.9931C12.119 14.8236 12.8472 15.6241 13.6417 16.3944C14.388 17.1407 15.1704 17.8329 15.9889 18.4708C16.8074 19.1088 17.6741 19.6926 18.5889 20.2222L21.9833 16.8278C22.2 16.6111 22.4829 16.4486 22.8319 16.3403C23.181 16.2319 23.5241 16.2019 23.8611 16.25L28.8444 17.2611C29.1815 17.3574 29.4583 17.5319 29.675 17.7847C29.8917 18.0375 30 18.3204 30 18.6333V24.4833C30 24.9167 29.8556 25.2778 29.5667 25.5667C29.2778 25.8556 28.9167 26 28.4833 26ZM8.36944 8.66667L10.7528 6.28333L10.1389 2.88889H6.925C7.04537 3.87593 7.21389 4.85093 7.43056 5.81389C7.64722 6.77685 7.96019 7.72778 8.36944 8.66667ZM21.2972 21.5944C22.2361 22.0037 23.1931 22.3287 24.1681 22.5694C25.1431 22.8102 26.1241 22.9667 27.1111 23.0389V19.8611L23.7167 19.175L21.2972 21.5944Z" fill="currentColor"/>
</g>
<defs>
<filter id="filter0_d_328_3764" x="0" y="0" width="34" height="34" filterUnits="userSpaceOnUse" color-interpolation-filters="sRGB">
<feFlood flood-opacity="0" result="BackgroundImageFix"/>
<feColorMatrix in="SourceAlpha" type="matrix" values="0 0 0 0 0 0 0 0 0 0 0 0 0 0 0 0 0 0 127 0" result="hardAlpha"/>
<feOffset dy="4"/>
<feGaussianBlur stdDeviation="2"/>
<feComposite in2="hardAlpha" operator="out"/>
<feColorMatrix type="matrix" values="0 0 0 0 0.266667 0 0 0 0 0.933333 0 0 0 0 0.356863 0 0 0 0.07 0"/>
<feBlend mode="normal" in2="BackgroundImageFix" result="effect1_dropShadow_328_3764"/>
<feBlend mode="normal" in="SourceGraphic" in2="effect1_dropShadow_328_3764" result="shape"/>
</filter>
</defs>
</svg>
