<svg width="31" height="25" viewBox="0 0 31 25" fill="none" xmlns="http://www.w3.org/2000/svg">
<path d="M8.08696 20.9677C6.96377 20.9677 6.00906 20.5757 5.22283 19.7917C4.43659 19.0076 4.04348 18.0556 4.04348 16.9355V4.83871H6.73913V16.9355C6.73913 17.3163 6.8683 17.6355 7.12663 17.8931C7.38496 18.1508 7.70507 18.2796 8.08696 18.2796C8.46884 18.2796 8.78895 18.1508 9.04728 17.8931C9.30562 17.6355 9.43478 17.3163 9.43478 16.9355V8.87097C9.43478 7.7509 9.8279 6.79884 10.6141 6.01479C11.4004 5.23073 12.3551 4.83871 13.4783 4.83871C14.6014 4.83871 15.5562 5.23073 16.3424 6.01479C17.1286 6.79884 17.5217 7.7509 17.5217 8.87097V16.9355C17.5217 17.3163 17.6509 17.6355 17.9092 17.8931C18.1676 18.1508 18.4877 18.2796 18.8696 18.2796C19.2514 18.2796 19.5716 18.1508 19.8299 17.8931C20.0882 17.6355 20.2174 17.3163 20.2174 16.9355V7.52688C20.2174 6.40681 20.6105 5.45475 21.3967 4.6707C22.183 3.88665 23.1377 3.49462 24.2609 3.49462H25.8446L24.2609 1.91532L26.1478 0L31 4.83871L26.1478 9.64382L24.2609 7.7285L25.8446 6.1828H24.2609C23.879 6.1828 23.5589 6.3116 23.3005 6.56922C23.0422 6.82684 22.913 7.14606 22.913 7.52688V16.9355C22.913 18.0556 22.5199 19.0076 21.7337 19.7917C20.9475 20.5757 19.9928 20.9677 18.8696 20.9677C17.7464 20.9677 16.7917 20.5757 16.0054 19.7917C15.2192 19.0076 14.8261 18.0556 14.8261 16.9355V8.87097C14.8261 8.49014 14.6969 8.17092 14.4386 7.91331C14.1803 7.65569 13.8601 7.52688 13.4783 7.52688C13.0964 7.52688 12.7763 7.65569 12.5179 7.91331C12.2596 8.17092 12.1304 8.49014 12.1304 8.87097V16.9355C12.1304 18.0556 11.7373 19.0076 10.9511 19.7917C10.1649 20.5757 9.21014 20.9677 8.08696 20.9677ZM2.69565 25C1.95435 25 1.31975 24.7368 0.791848 24.2104C0.263949 23.6839 0 23.0511 0 22.3118V11.5591H29.6522V22.3118C29.6522 23.0511 29.3882 23.6839 28.8603 24.2104C28.3324 24.7368 27.6978 25 26.9565 25H2.69565ZM2.69565 22.3118H26.9565V14.2473H2.69565V22.3118Z" fill="currentColor"
stroke="currentColor"/>
</svg>
