<svg width="23" height="23" viewBox="0 0 23 23" fill="none" xmlns="http://www.w3.org/2000/svg">
<path d="M21.2111 23L13.1611 14.95C12.5222 15.4611 11.7875 15.8657 10.9569 16.1639C10.1264 16.462 9.24259 16.6111 8.30556 16.6111C5.98426 16.6111 4.01968 15.8072 2.41181 14.1993C0.803935 12.5914 0 10.6269 0 8.30556C0 5.98426 0.803935 4.01968 2.41181 2.41181C4.01968 0.803935 5.98426 0 8.30556 0C10.6269 0 12.5914 0.803935 14.1993 2.41181C15.8072 4.01968 16.6111 5.98426 16.6111 8.30556C16.6111 9.24259 16.462 10.1264 16.1639 10.9569C15.8657 11.7875 15.4611 12.5222 14.95 13.1611L23 21.2111L21.2111 23ZM8.30556 14.0556C9.90278 14.0556 11.2604 13.4965 12.3785 12.3785C13.4965 11.2604 14.0556 9.90278 14.0556 8.30556C14.0556 6.70833 13.4965 5.35069 12.3785 4.23264C11.2604 3.11458 9.90278 2.55556 8.30556 2.55556C6.70833 2.55556 5.35069 3.11458 4.23264 4.23264C3.11458 5.35069 2.55556 6.70833 2.55556 8.30556C2.55556 9.90278 3.11458 11.2604 4.23264 12.3785C5.35069 13.4965 6.70833 14.0556 8.30556 14.0556Z" fill="currentColor"/>
</svg>
