<svg width="18" height="18" viewBox="0 0 18 18" fill="none" xmlns="http://www.w3.org/2000/svg">
<path d="M9 18C7.53333 18 6.12917 17.725 4.7875 17.175C3.44583 16.625 2.25833 15.825 1.225 14.775L2.65 13.35C3.5 14.2 4.475 14.8542 5.575 15.3125C6.675 15.7708 7.825 16 9.025 16C10.225 16 11.3708 15.775 12.4625 15.325C13.5542 14.875 14.525 14.225 15.375 13.375L16.775 14.775C15.725 15.825 14.5333 16.625 13.2 17.175C11.8667 17.725 10.4667 18 9 18ZM9 14C8.06667 14 7.175 13.825 6.325 13.475C5.475 13.125 4.71667 12.6167 4.05 11.95L5.45 10.55C5.93333 11.0333 6.47917 11.3958 7.0875 11.6375C7.69583 11.8792 8.33333 12 9 12C9.66667 12 10.3042 11.8792 10.9125 11.6375C11.5208 11.3958 12.0667 11.0333 12.55 10.55L13.95 11.95C13.2833 12.6167 12.525 13.125 11.675 13.475C10.825 13.825 9.93333 14 9 14ZM2 2V3H16V2H2ZM5.1 5L5.4 6H12.6L12.9 5H5.1ZM5.4 8C4.96667 8 4.575 7.87083 4.225 7.6125C3.875 7.35417 3.63333 7.01667 3.5 6.6L3 5H2C1.45 5 0.979167 4.80417 0.5875 4.4125C0.195833 4.02083 0 3.55 0 3V0H18V3C18 3.55 17.8042 4.02083 17.4125 4.4125C17.0208 4.80417 16.55 5 16 5H15L14.35 6.7C14.2 7.08333 13.9583 7.39583 13.625 7.6375C13.2917 7.87917 12.9167 8 12.5 8H5.4Z" fill="currentColor"
/>
</svg>
