<svg width="34" height="34" viewBox="0 0 34 34" fill="none" xmlns="http://www.w3.org/2000/svg">
<path d="M15.3782 26.6002H17.872V22.9842L20.6983 25.852L22.4855 24.0648L17.872 19.4514V17.872H19.4098L24.0233 22.527L25.8105 20.7398L22.9426 17.872H26.6002V15.3782H22.9426L25.8105 12.552L24.0233 10.7648L19.4098 15.3782H17.872V13.8404L22.4855 9.22694L20.6983 7.43974L17.872 10.3076V6.65004H15.3782V10.3076L12.5104 7.43974L10.7232 9.22694L15.3782 13.8404V15.3782H13.7988L9.18536 10.7648L7.39816 12.552L10.266 15.3782H6.65V17.872H10.266L7.39816 20.7398L9.18536 22.527L13.7988 17.872H15.3782V19.4514L10.7232 24.0648L12.5104 25.852L15.3782 22.9842V26.6002ZM16.6251 33.2502C14.3253 33.2502 12.164 32.8138 10.1413 31.941C8.1186 31.0682 6.35911 29.8836 4.86285 28.3874C3.36659 26.8911 2.18205 25.1316 1.30923 23.1089C0.436409 21.0862 0 18.9249 0 16.6251C0 14.3253 0.436409 12.164 1.30923 10.1413C2.18205 8.1186 3.36659 6.35911 4.86285 4.86285C6.35911 3.36659 8.1186 2.18205 10.1413 1.30923C12.164 0.436409 14.3253 0 16.6251 0C18.9249 0 21.0862 0.436409 23.1089 1.30923C25.1316 2.18205 26.8911 3.36659 28.3874 4.86285C29.8836 6.35911 31.0682 8.1186 31.941 10.1413C32.8138 12.164 33.2502 14.3253 33.2502 16.6251C33.2502 18.9249 32.8138 21.0862 31.941 23.1089C31.0682 25.1316 29.8836 26.8911 28.3874 28.3874C26.8911 29.8836 25.1316 31.0682 23.1089 31.941C21.0862 32.8138 18.9249 33.2502 16.6251 33.2502ZM16.6251 29.9252C20.338 29.9252 23.483 28.6368 26.0599 26.0599C28.6367 23.483 29.9252 20.3381 29.9252 16.6251C29.9252 12.9122 28.6367 9.76725 26.0599 7.19036C23.483 4.61347 20.338 3.32502 16.6251 3.32502C12.9122 3.32502 9.76725 4.61347 7.19036 7.19036C4.61347 9.76725 3.32502 12.9122 3.32502 16.6251C3.32502 20.3381 4.61347 23.483 7.19036 26.0599C9.76725 28.6368 12.9122 29.9252 16.6251 29.9252Z" fill="currentColor"/>
</svg>