<svg width="42" height="42" viewBox="0 0 42 42" fill="none" xmlns="http://www.w3.org/2000/svg">
<path d="M14.7 33.6H26.25C26.845 33.6 27.3962 33.4512 27.9037 33.1537C28.4112 32.8563 28.77 32.445 28.98 31.92L33.39 21.63C33.46 21.455 33.5125 21.28 33.5475 21.105C33.5825 20.93 33.6 20.755 33.6 20.58V18.9C33.6 18.305 33.3988 17.8062 32.9963 17.4037C32.5938 17.0012 32.095 16.8 31.5 16.8H21.84L23.1 9.66C23.17 9.31 23.1525 8.9775 23.0475 8.6625C22.9425 8.3475 22.7675 8.0675 22.5225 7.8225L21 6.3L11.34 16.8C11.06 17.08 10.85 17.395 10.71 17.745C10.57 18.095 10.5 18.48 10.5 18.9V29.4C10.5 30.555 10.9113 31.5437 11.7337 32.3662C12.5562 33.1887 13.545 33.6 14.7 33.6ZM21 42C18.095 42 15.365 41.4487 12.81 40.3462C10.255 39.2437 8.0325 37.7475 6.1425 35.8575C4.2525 33.9675 2.75625 31.745 1.65375 29.19C0.55125 26.635 0 23.905 0 21C0 18.095 0.55125 15.365 1.65375 12.81C2.75625 10.255 4.2525 8.0325 6.1425 6.1425C8.0325 4.2525 10.255 2.75625 12.81 1.65375C15.365 0.55125 18.095 0 21 0C23.905 0 26.635 0.55125 29.19 1.65375C31.745 2.75625 33.9675 4.2525 35.8575 6.1425C37.7475 8.0325 39.2437 10.255 40.3462 12.81C41.4487 15.365 42 18.095 42 21C42 23.905 41.4487 26.635 40.3462 29.19C39.2437 31.745 37.7475 33.9675 35.8575 35.8575C33.9675 37.7475 31.745 39.2437 29.19 40.3462C26.635 41.4487 23.905 42 21 42ZM21 37.8C25.69 37.8 29.6625 36.1725 32.9175 32.9175C36.1725 29.6625 37.8 25.69 37.8 21C37.8 16.31 36.1725 12.3375 32.9175 9.0825C29.6625 5.8275 25.69 4.2 21 4.2C16.31 4.2 12.3375 5.8275 9.0825 9.0825C5.8275 12.3375 4.2 16.31 4.2 21C4.2 25.69 5.8275 29.6625 9.0825 32.9175C12.3375 36.1725 16.31 37.8 21 37.8Z" fill="currentColor"
stroke="currentColor"/>
</svg>
