<svg width="22" height="16" viewBox="0 0 22 16" fill="none" xmlns="http://www.w3.org/2000/svg">
<path d="M6 16C5.16667 16 4.45833 15.7083 3.875 15.125C3.29167 14.5417 3 13.8333 3 13H0.5L0.95 11H3.775C4.05833 10.6833 4.39167 10.4375 4.775 10.2625C5.15833 10.0875 5.56667 10 6 10C6.43333 10 6.84167 10.0875 7.225 10.2625C7.60833 10.4375 7.94167 10.6833 8.225 11H12.4L14.5 2H5.55L5.975 0H17L16.075 4H19L22 8L21 13H19C19 13.8333 18.7083 14.5417 18.125 15.125C17.5417 15.7083 16.8333 16 16 16C15.1667 16 14.4583 15.7083 13.875 15.125C13.2917 14.5417 13 13.8333 13 13H9C9 13.8333 8.70833 14.5417 8.125 15.125C7.54167 15.7083 6.83333 16 6 16ZM14.925 9H19.75L19.85 8.475L18 6H15.625L14.925 9ZM14.5 2L12.4 11L12.45 10.825L14.5 2ZM2.5 9V6H0L3.5 1V4H6L2.5 9ZM6 14C6.28333 14 6.52083 13.9042 6.7125 13.7125C6.90417 13.5208 7 13.2833 7 13C7 12.7167 6.90417 12.4792 6.7125 12.2875C6.52083 12.0958 6.28333 12 6 12C5.71667 12 5.47917 12.0958 5.2875 12.2875C5.09583 12.4792 5 12.7167 5 13C5 13.2833 5.09583 13.5208 5.2875 13.7125C5.47917 13.9042 5.71667 14 6 14ZM16 14C16.2833 14 16.5208 13.9042 16.7125 13.7125C16.9042 13.5208 17 13.2833 17 13C17 12.7167 16.9042 12.4792 16.7125 12.2875C16.5208 12.0958 16.2833 12 16 12C15.7167 12 15.4792 12.0958 15.2875 12.2875C15.0958 12.4792 15 12.7167 15 13C15 13.2833 15.0958 13.5208 15.2875 13.7125C15.4792 13.9042 15.7167 14 16 14Z" fill="currentColor"/>
</svg>
