<svg width="44" height="32" viewBox="0 0 44 32" fill="none" xmlns="http://www.w3.org/2000/svg">
<path d="M32.8018 16L25.7658 8.9L28.5901 6.1L32.8018 10.35L41.2252 1.85L44 4.7L32.8018 16ZM15.8559 16C13.6757 16 11.8093 15.2167 10.2568 13.65C8.7042 12.0833 7.92793 10.2 7.92793 8C7.92793 5.8 8.7042 3.91667 10.2568 2.35C11.8093 0.783333 13.6757 0 15.8559 0C18.036 0 19.9024 0.783333 21.455 2.35C23.0075 3.91667 23.7838 5.8 23.7838 8C23.7838 10.2 23.0075 12.0833 21.455 13.65C19.9024 15.2167 18.036 16 15.8559 16ZM0 32V26.4C0 25.2667 0.289039 24.225 0.867117 23.275C1.4452 22.325 2.21321 21.6 3.17117 21.1C5.21922 20.0667 7.3003 19.2917 9.41441 18.775C11.5285 18.2583 13.6757 18 15.8559 18C18.036 18 20.1832 18.2583 22.2973 18.775C24.4114 19.2917 26.4925 20.0667 28.5405 21.1C29.4985 21.6 30.2665 22.325 30.8446 23.275C31.4227 24.225 31.7117 25.2667 31.7117 26.4V32H0ZM3.96396 28H27.7477V26.4C27.7477 26.0333 27.6569 25.7 27.4752 25.4C27.2935 25.1 27.0541 24.8667 26.7568 24.7C24.973 23.8 23.1727 23.125 21.3559 22.675C19.539 22.225 17.7057 22 15.8559 22C14.006 22 12.1727 22.225 10.3559 22.675C8.53904 23.125 6.73874 23.8 4.95496 24.7C4.65766 24.8667 4.41817 25.1 4.23649 25.4C4.0548 25.7 3.96396 26.0333 3.96396 26.4V28ZM15.8559 12C16.9459 12 17.8791 11.6083 18.6554 10.825C19.4317 10.0417 19.8198 9.1 19.8198 8C19.8198 6.9 19.4317 5.95833 18.6554 5.175C17.8791 4.39167 16.9459 4 15.8559 4C14.7658 4 13.8326 4.39167 13.0563 5.175C12.28 5.95833 11.8919 6.9 11.8919 8C11.8919 9.1 12.28 10.0417 13.0563 10.825C13.8326 11.6083 14.7658 12 15.8559 12Z" fill="currentColor"
stroke="currentColor"/>
</svg>
