<svg width="31" height="22" viewBox="0 0 31 22" fill="none" xmlns="http://www.w3.org/2000/svg">
<path d="M2.81818 17.875H8.59545C8.19621 17.4854 7.82633 17.0615 7.4858 16.6031C7.14527 16.1448 6.84583 15.6521 6.5875 15.125H2.81818V17.875ZM15.5 17.875C17.4492 17.875 19.1108 17.2047 20.4847 15.8641C21.8585 14.5234 22.5455 12.9021 22.5455 11C22.5455 9.09792 21.8585 7.47656 20.4847 6.13594C19.1108 4.79531 17.4492 4.125 15.5 4.125C13.5508 4.125 11.8892 4.79531 10.5153 6.13594C9.14148 7.47656 8.45455 9.09792 8.45455 11C8.45455 12.9021 9.14148 14.5234 10.5153 15.8641C11.8892 17.2047 13.5508 17.875 15.5 17.875ZM24.4125 6.875H28.1818V4.125H22.4045C22.8038 4.51458 23.1737 4.93854 23.5142 5.39687C23.8547 5.85521 24.1542 6.34792 24.4125 6.875ZM0 22V11H2.81818V12.375H5.74205C5.69508 12.1458 5.66572 11.9224 5.65398 11.7047C5.64223 11.487 5.63636 11.2521 5.63636 11C5.63636 8.31875 6.59337 6.04427 8.50739 4.17656C10.4214 2.30885 12.7523 1.375 15.5 1.375H28.1818V0H31V11H28.1818V9.625H25.258C25.3049 9.85417 25.3343 10.0776 25.346 10.2953C25.3578 10.513 25.3636 10.7479 25.3636 11C25.3636 13.6813 24.4066 15.9557 22.4926 17.8234C20.5786 19.6911 18.2477 20.625 15.5 20.625H2.81818V22H0ZM15.5 15.125C14.725 15.125 14.0616 14.8557 13.5097 14.3172C12.9578 13.7786 12.6818 13.1313 12.6818 12.375C12.6818 11.8479 12.7934 11.3266 13.0165 10.8109C13.2396 10.2953 13.6682 9.55625 14.3023 8.59375L15.5 6.875L16.6977 8.59375C17.3318 9.55625 17.7604 10.2953 17.9835 10.8109C18.2066 11.3266 18.3182 11.8479 18.3182 12.375C18.3182 13.1313 18.0422 13.7786 17.4903 14.3172C16.9384 14.8557 16.275 15.125 15.5 15.125Z" fill="currentColor"
stroke="currentColor"/>
</svg>
