<svg width="27" height="29" viewBox="0 0 27 29" fill="none" xmlns="http://www.w3.org/2000/svg">
<path d="M0 16.7131C0 14.3525 0.966892 11.7853 2.90068 9.0116C4.83446 6.23789 7.75946 3.23403 11.6757 0C14.5459 2.3606 16.875 4.60317 18.6628 6.72772C20.4507 8.85226 21.7338 10.8706 22.5122 12.7827H19.3378C18.6568 11.4371 17.6838 10.0149 16.4189 8.51587C15.1541 7.01689 13.573 5.42939 11.6757 3.75336C8.78108 6.32641 6.59797 8.69882 5.12635 10.8706C3.65473 13.0423 2.91892 14.9898 2.91892 16.7131C2.91892 19.2389 3.74595 21.3339 5.4 22.9982C7.05405 24.6624 9.14595 25.4945 11.6757 25.4945V28.3272C8.34324 28.3272 5.56419 27.2177 3.33851 24.9988C1.11284 22.7798 0 20.0179 0 16.7131ZM15.7622 29L15.1419 27.6545C14.9473 27.2532 14.8074 26.8341 14.7223 26.3974C14.6372 25.9607 14.5946 25.5181 14.5946 25.0696C14.5946 24.5503 14.6554 24.0368 14.777 23.5293C14.8986 23.0218 15.0811 22.5319 15.3243 22.0598C15.5189 21.6585 15.6892 21.2513 15.8351 20.8382C15.9811 20.4251 16.0541 19.9943 16.0541 19.5458C16.0541 19.1917 16.0115 18.8494 15.9264 18.5189C15.8412 18.1884 15.7257 17.858 15.5797 17.5275L15.0689 16.4652L17.0757 15.6154L17.6959 16.8901C17.8905 17.2914 18.0304 17.7163 18.1155 18.1648C18.2007 18.6133 18.2432 19.0737 18.2432 19.5458C18.2432 20.0651 18.1824 20.5727 18.0608 21.0684C17.9392 21.5641 17.7568 22.048 17.5135 22.5201C17.3189 22.9214 17.1486 23.3346 17.0027 23.7595C16.8568 24.1844 16.7838 24.6211 16.7838 25.0696C16.7838 25.4001 16.8203 25.7247 16.8932 26.0433C16.9662 26.362 17.0757 26.6748 17.2216 26.9817L17.7689 28.1502L15.7622 29ZM20.1405 29L19.5203 27.6545C19.3257 27.2532 19.1858 26.8341 19.1007 26.3974C19.0155 25.9607 18.973 25.5181 18.973 25.0696C18.973 24.5503 19.0338 24.0368 19.1554 23.5293C19.277 23.0218 19.4595 22.5319 19.7027 22.0598C19.8973 21.6585 20.0676 21.2513 20.2135 20.8382C20.3595 20.4251 20.4324 19.9943 20.4324 19.5458C20.4324 19.1917 20.3899 18.8494 20.3047 18.5189C20.2196 18.1884 20.1041 17.858 19.9581 17.5275L19.4473 16.4652L21.4541 15.6154L22.0743 16.8901C22.2689 17.315 22.4088 17.7458 22.4939 18.1825C22.5791 18.6193 22.6216 19.0737 22.6216 19.5458C22.6216 20.0651 22.5608 20.5727 22.4392 21.0684C22.3176 21.5641 22.1351 22.048 21.8919 22.5201C21.6973 22.9214 21.527 23.3346 21.3811 23.7595C21.2351 24.1844 21.1622 24.6211 21.1622 25.0696C21.1622 25.4001 21.1987 25.7247 21.2716 26.0433C21.3446 26.362 21.4541 26.6748 21.6 26.9817L22.1473 28.1502L20.1405 29ZM24.5189 29L23.8986 27.6545C23.7041 27.2532 23.5642 26.8341 23.4791 26.3974C23.3939 25.9607 23.3514 25.5181 23.3514 25.0696C23.3514 24.5503 23.4122 24.0368 23.5338 23.5293C23.6554 23.0218 23.8378 22.5319 24.0811 22.0598C24.2757 21.6585 24.4459 21.2513 24.5919 20.8382C24.7378 20.4251 24.8108 19.9943 24.8108 19.5458C24.8108 19.1917 24.7682 18.8494 24.6831 18.5189C24.598 18.1884 24.4824 17.858 24.3365 17.5275L23.8257 16.4652L25.8324 15.6154L26.4527 16.8901C26.6473 17.2914 26.7872 17.7163 26.8723 18.1648C26.9574 18.6133 27 19.0737 27 19.5458C27 20.0651 26.9392 20.5786 26.8176 21.0861C26.6959 21.5936 26.5135 22.0834 26.2703 22.5556C26.0757 22.9569 25.9054 23.3641 25.7595 23.7772C25.6135 24.1903 25.5405 24.6211 25.5405 25.0696C25.5405 25.4001 25.577 25.7247 25.65 26.0433C25.723 26.362 25.8324 26.6748 25.9784 26.9817L26.5257 28.1502L24.5189 29Z" fill="currentColor"
stroke="currentColor"/>
</svg>
