<svg width="38" height="39" viewBox="0 0 38 39" fill="none" xmlns="http://www.w3.org/2000/svg">

<path 
d="M32.0952 38.9536C31.8413 38.9536 31.6032 38.9149 31.381 38.8375C31.1587 38.7601 30.9524 38.6286 30.7619 38.4429L21.0476 28.9714C20.8571 28.7857 20.7222 28.5845 20.6429 28.3679C20.5635 28.1512 20.5238 27.919 20.5238 27.6714C20.5238 27.4238 20.5635 27.1917 20.6429 26.975C20.7222 26.7583 20.8571 26.5571 21.0476 26.3714L25.0952 22.425C25.2857 22.2393 25.4921 22.1077 25.7143 22.0304C25.9365 21.953 26.1746 21.9143 26.4286 21.9143C26.6825 21.9143 26.9206 21.953 27.1429 22.0304C27.3651 22.1077 27.5714 22.2393 27.7619 22.425L37.4762 31.8964C37.6667 32.0821 37.8016 32.2833 37.881 32.5C37.9603 32.7167 38 32.9488 38 33.1964C38 33.444 37.9603 33.6762 37.881 33.8929C37.8016 34.1095 37.6667 34.3107 37.4762 34.4964L33.4286 38.4429C33.2381 38.6286 33.0317 38.7601 32.8095 38.8375C32.5873 38.9149 32.3492 38.9536 32.0952 38.9536ZM32.0952 34.5429L33.4762 33.1964L26.4762 26.3714L25.0952 27.7179L32.0952 34.5429ZM5.95238 39C5.69841 39 5.45238 38.9536 5.21429 38.8607C4.97619 38.7679 4.7619 38.6286 4.57143 38.4429L0.571429 34.5429C0.380952 34.3571 0.238095 34.1482 0.142857 33.9161C0.047619 33.6839 0 33.444 0 33.1964C0 32.9488 0.047619 32.7167 0.142857 32.5C0.238095 32.2833 0.380952 32.0821 0.571429 31.8964L10.6667 22.0536H14.7143L16.3333 20.475L8.47619 12.8143H5.7619L0 7.19643L5.38095 1.95L11.1429 7.56786V10.2143L19 17.875L24.5238 12.4893L22.4762 10.4929L25.1429 7.89286H19.7619L18.4286 6.59286L25.1905 0L26.5238 1.3V6.54643L29.1905 3.94643L35.9524 10.5393C36.4921 11.0655 36.9048 11.6613 37.1905 12.3268C37.4762 12.9923 37.619 13.6964 37.619 14.4393C37.619 15.1821 37.4762 15.894 37.1905 16.575C36.9048 17.256 36.4921 17.8595 35.9524 18.3857L31.9048 14.4393L29.2381 17.0393L27.2381 15.0893L17.381 24.7V28.6L7.28571 38.4429C7.09524 38.6286 6.88889 38.7679 6.66667 38.8607C6.44444 38.9536 6.20635 39 5.95238 39ZM5.95238 34.5429L14.0476 26.65V25.3036H12.6667L4.57143 33.1964L5.95238 34.5429ZM5.95238 34.5429L4.57143 33.1964L5.28571 33.8464L5.95238 34.5429Z" 
fill="currentColor"
stroke="currentColor"
/>

</svg>
