<svg width="26" height="31" viewBox="0 0 26 31" fill="none" xmlns="http://www.w3.org/2000/svg">
<path 
d="M24.6043 11.0205L18.9816 5.43095L15.592 8.76087L12.2025 5.43095L16.7086 0.911765C17.0276 0.594629 17.3865 0.363384 17.7853 0.218031C18.184 0.0726769 18.5828 0 18.9816 0C19.407 0 19.8124 0.0726769 20.1979 0.218031C20.5833 0.363384 20.9223 0.594629 21.2147 0.911765L24.6043 4.28133C25.0828 4.73061 25.4351 5.25256 25.661 5.84719C25.887 6.44182 26 7.04305 26 7.6509C26 8.25874 25.887 8.85337 25.661 9.43478C25.4351 10.0162 25.0828 10.5448 24.6043 11.0205ZM2.6319 18.3146C2.15337 17.8389 1.91411 17.2773 1.91411 16.6298C1.91411 15.9823 2.15337 15.4207 2.6319 14.945L6.5399 11.0205L9.9294 14.39L5.9816 18.3146C5.52965 18.7903 4.97802 19.0281 4.32669 19.0281C3.67536 19.0281 3.11043 18.7903 2.6319 18.3146ZM0.91718 30.0882C0.62474 29.7711 0.39877 29.4209 0.23926 29.0377C0.07975 28.6545 0 28.2515 0 27.8286C0 27.4058 0.07311 27.0028 0.21933 26.6196C0.36554 26.2364 0.59816 25.8862 0.91718 25.5691L12.2025 14.39L7.138 9.31586C6.6595 8.86658 6.4202 8.3182 6.4202 7.67072C6.4202 7.02323 6.6595 6.46164 7.138 5.98593C7.59 5.51023 8.1483 5.27238 8.8129 5.27238C9.4775 5.27238 10.0491 5.51023 10.5276 5.98593L15.592 11.0205L17.865 8.76087L22.3313 13.2801C22.6503 13.5972 22.8098 13.9672 22.8098 14.39C22.8098 14.8129 22.6503 15.1829 22.3313 15.5C22.0123 15.8171 21.6401 15.9757 21.2147 15.9757C20.7894 15.9757 20.4172 15.8171 20.0982 15.5L5.42331 30.0882C5.10429 30.4054 4.75204 30.6366 4.36656 30.782C3.98108 30.9273 3.58896 31 3.19018 31C2.79141 31 2.39264 30.9207 1.99387 30.7621C1.59509 30.6036 1.2362 30.3789 0.91718 30.0882Z" 
fill="currentColor"
/>
</svg>